<?xml version="1.0" encoding="UTF-8" standalone="no"?>
<!DOCTYPE svg PUBLIC "-//W3C//DTD SVG 1.1//EN" "http://www.w3.org/Graphics/SVG/1.1/DTD/svg11.dtd">
<svg width="100%" height="100%" viewBox="0 0 783 651" version="1.1" xmlns="http://www.w3.org/2000/svg" xmlns:xlink="http://www.w3.org/1999/xlink" xml:space="preserve" xmlns:serif="http://www.serif.com/" style="fill-rule:evenodd;clip-rule:evenodd;stroke-linecap:round;stroke-linejoin:round;stroke-miterlimit:1.5;">
    <g>
        <g>
            <path d="M188.865,425.793L188.865,458.419" style="fill:none;stroke:rgb(255,0,0);stroke-width:4.67px;"/>
            <g transform="matrix(0.831194,0,0,1,32.0381,0)">
                <path d="M169.219,442.205L208.053,442.205" style="fill:none;stroke:rgb(255,0,0);stroke-width:5.08px;"/>
            </g>
        </g>
        <g transform="matrix(1,0,0,1,189.234,-188.878)">
            <path d="M188.865,425.793L188.865,458.419" style="fill:none;stroke:rgb(255,0,0);stroke-width:4.67px;"/>
            <g transform="matrix(0.831194,0,0,1,32.0381,0)">
                <path d="M169.219,442.205L208.053,442.205" style="fill:none;stroke:rgb(255,0,0);stroke-width:5.08px;"/>
            </g>
        </g>
        <g transform="matrix(1,0,0,1,378.098,-377.854)">
            <path d="M188.865,425.793L188.865,458.419" style="fill:none;stroke:rgb(255,0,0);stroke-width:4.67px;"/>
            <g transform="matrix(0.831194,0,0,1,32.0381,0)">
                <path d="M169.219,442.205L208.053,442.205" style="fill:none;stroke:rgb(255,0,0);stroke-width:5.08px;"/>
            </g>
        </g>
        <g transform="matrix(1,0,0,1,0.0340845,189.075)">
            <path d="M188.865,425.793L188.865,458.419" style="fill:none;stroke:rgb(255,0,0);stroke-width:4.67px;"/>
            <g transform="matrix(0.831194,0,0,1,32.0381,0)">
                <path d="M169.219,442.205L208.053,442.205" style="fill:none;stroke:rgb(255,0,0);stroke-width:5.08px;"/>
            </g>
        </g>
        <g transform="matrix(1,0,0,1,0.0340845,-188.878)">
            <path d="M188.865,425.793L188.865,458.419" style="fill:none;stroke:rgb(255,0,0);stroke-width:4.67px;"/>
            <g transform="matrix(0.831194,0,0,1,32.0381,0)">
                <path d="M169.219,442.205L208.053,442.205" style="fill:none;stroke:rgb(255,0,0);stroke-width:5.08px;"/>
            </g>
        </g>
        <g transform="matrix(1,0,0,1,0,-377.854)">
            <path d="M188.865,425.793L188.865,458.419" style="fill:none;stroke:rgb(255,0,0);stroke-width:4.67px;"/>
            <g transform="matrix(0.831194,0,0,1,32.0381,0)">
                <path d="M169.219,442.205L208.053,442.205" style="fill:none;stroke:rgb(255,0,0);stroke-width:5.08px;"/>
            </g>
        </g>
        <g transform="matrix(1,0,0,1,189.234,-377.854)">
            <path d="M188.865,425.793L188.865,458.419" style="fill:none;stroke:rgb(255,0,0);stroke-width:4.67px;"/>
            <g transform="matrix(0.831194,0,0,1,32.0381,0)">
                <path d="M169.219,442.205L208.053,442.205" style="fill:none;stroke:rgb(255,0,0);stroke-width:5.08px;"/>
            </g>
        </g>
        <g transform="matrix(1,0,0,1,378.098,-188.878)">
            <path d="M188.865,425.793L188.865,458.419" style="fill:none;stroke:rgb(255,0,0);stroke-width:4.67px;"/>
            <g transform="matrix(0.831194,0,0,1,32.0381,0)">
                <path d="M169.219,442.205L208.053,442.205" style="fill:none;stroke:rgb(255,0,0);stroke-width:5.08px;"/>
            </g>
        </g>
        <g transform="matrix(1,0,0,1,567.075,-377.854)">
            <path d="M188.865,425.793L188.865,458.419" style="fill:none;stroke:rgb(255,0,0);stroke-width:4.67px;"/>
            <g transform="matrix(0.831194,0,0,1,32.0381,0)">
                <path d="M169.219,442.205L208.053,442.205" style="fill:none;stroke:rgb(255,0,0);stroke-width:5.08px;"/>
            </g>
        </g>
        <g transform="matrix(1,0,0,1,567.075,-188.878)">
            <path d="M188.865,425.793L188.865,458.419" style="fill:none;stroke:rgb(255,0,0);stroke-width:4.67px;"/>
            <g transform="matrix(0.831194,0,0,1,32.0381,0)">
                <path d="M169.219,442.205L208.053,442.205" style="fill:none;stroke:rgb(255,0,0);stroke-width:5.08px;"/>
            </g>
        </g>
        <g transform="matrix(1,0,0,1,567.075,0.0984589)">
            <path d="M188.865,425.793L188.865,458.419" style="fill:none;stroke:rgb(255,0,0);stroke-width:4.67px;"/>
            <g transform="matrix(0.831194,0,0,1,32.0381,0)">
                <path d="M169.219,442.205L208.053,442.205" style="fill:none;stroke:rgb(255,0,0);stroke-width:5.08px;"/>
            </g>
        </g>
        <g transform="matrix(1,0,0,1,567.075,189.075)">
            <path d="M188.865,425.793L188.865,458.419" style="fill:none;stroke:rgb(255,0,0);stroke-width:4.67px;"/>
            <g transform="matrix(0.831194,0,0,1,32.0381,0)">
                <path d="M169.219,442.205L208.053,442.205" style="fill:none;stroke:rgb(255,0,0);stroke-width:5.08px;"/>
            </g>
        </g>
        <g transform="matrix(1,0,0,1,378.098,0.0984589)">
            <path d="M188.865,425.793L188.865,458.419" style="fill:none;stroke:rgb(255,0,0);stroke-width:4.67px;"/>
            <g transform="matrix(0.831194,0,0,1,32.0381,0)">
                <path d="M169.219,442.205L208.053,442.205" style="fill:none;stroke:rgb(255,0,0);stroke-width:5.08px;"/>
            </g>
        </g>
        <g transform="matrix(1,0,0,1,378.098,189.075)">
            <path d="M188.865,425.793L188.865,458.419" style="fill:none;stroke:rgb(255,0,0);stroke-width:4.67px;"/>
            <g transform="matrix(0.831194,0,0,1,32.0381,0)">
                <path d="M169.219,442.205L208.053,442.205" style="fill:none;stroke:rgb(255,0,0);stroke-width:5.08px;"/>
            </g>
        </g>
        <g transform="matrix(1,0,0,1,189.234,0.0984589)">
            <path d="M188.865,425.793L188.865,458.419" style="fill:none;stroke:rgb(255,0,0);stroke-width:4.67px;"/>
            <g transform="matrix(0.831194,0,0,1,32.0381,0)">
                <path d="M169.219,442.205L208.053,442.205" style="fill:none;stroke:rgb(255,0,0);stroke-width:5.08px;"/>
            </g>
        </g>
        <g transform="matrix(1,0,0,1,189.234,189.075)">
            <path d="M188.865,425.793L188.865,458.419" style="fill:none;stroke:rgb(255,0,0);stroke-width:4.67px;"/>
            <g transform="matrix(0.831194,0,0,1,32.0381,0)">
                <path d="M169.219,442.205L208.053,442.205" style="fill:none;stroke:rgb(255,0,0);stroke-width:5.08px;"/>
            </g>
        </g>
        <g>
            <path d="M0,0L0,24.337" style="fill:none;stroke:rgb(255,0,0);stroke-width:4.67px;"/>
            <path d="M0,0L22.939,0L0,0Z" style="fill:none;stroke:rgb(255,0,0);stroke-width:4.67px;"/>
            <path d="M0,0L16.344,16.344" style="fill:none;stroke:rgb(255,0,0);stroke-width:4.67px;"/>
        </g>
        <g transform="matrix(1,0,0,-1,0,650.079)">
            <path d="M0,0L0,24.337" style="fill:none;stroke:rgb(255,0,0);stroke-width:4.67px;"/>
            <path d="M0,0L22.939,0L0,0Z" style="fill:none;stroke:rgb(255,0,0);stroke-width:4.67px;"/>
            <path d="M0,0L16.344,16.344" style="fill:none;stroke:rgb(255,0,0);stroke-width:4.67px;"/>
        </g>
        <g transform="matrix(-1,0,0,1,782.362,0)">
            <path d="M0,0L0,24.337" style="fill:none;stroke:rgb(255,0,0);stroke-width:4.67px;"/>
            <path d="M0,0L22.939,0L0,0Z" style="fill:none;stroke:rgb(255,0,0);stroke-width:4.67px;"/>
            <path d="M0,0L16.344,16.344" style="fill:none;stroke:rgb(255,0,0);stroke-width:4.67px;"/>
        </g>
        <g transform="matrix(-1,0,0,-1,782.362,650.079)">
            <path d="M0,0L0,24.337" style="fill:none;stroke:rgb(255,0,0);stroke-width:4.67px;"/>
            <path d="M0,0L22.939,0L0,0Z" style="fill:none;stroke:rgb(255,0,0);stroke-width:4.67px;"/>
            <path d="M0,0L16.344,16.344" style="fill:none;stroke:rgb(255,0,0);stroke-width:4.67px;"/>
        </g>
    </g>
</svg>
