<?xml version="1.0" encoding="UTF-8" standalone="no"?>
<!DOCTYPE svg PUBLIC "-//W3C//DTD SVG 1.1//EN" "http://www.w3.org/Graphics/SVG/1.1/DTD/svg11.dtd">
<svg width="100%" height="100%" viewBox="0 0 783 651" version="1.1" xmlns="http://www.w3.org/2000/svg" xmlns:xlink="http://www.w3.org/1999/xlink" xml:space="preserve" xmlns:serif="http://www.serif.com/" style="fill-rule:evenodd;clip-rule:evenodd;stroke-linecap:round;stroke-linejoin:round;stroke-miterlimit:1.5;">
    <path d="M307.599,557.926L307.599,595.679" style="fill:none;stroke:black;stroke-width:1px;"/>
    <path d="M311.794,557.926L311.794,595.679" style="fill:none;stroke:black;stroke-width:1px;"/>
    <path d="M315.989,557.926L315.989,595.679" style="fill:none;stroke:black;stroke-width:1px;"/>
    <path d="M320.184,557.926L320.184,595.679" style="fill:none;stroke:black;stroke-width:1px;"/>
    <path d="M299.21,557.926L299.21,595.679" style="fill:none;stroke:black;stroke-width:1px;"/>
    <path d="M324.378,557.926L324.378,595.679" style="fill:none;stroke:black;stroke-width:1px;"/>
    <path d="M336.963,557.926L336.963,595.679" style="fill:none;stroke:black;stroke-width:1px;"/>
    <path d="M328.573,557.926L328.573,595.679" style="fill:none;stroke:black;stroke-width:1px;"/>
    <path d="M303.404,557.926L303.404,595.679" style="fill:none;stroke:black;stroke-width:1px;"/>
    <path d="M332.768,557.926L332.768,595.679" style="fill:none;stroke:black;stroke-width:1px;"/>
    <path d="M357.504,557.892L357.504,595.646" style="fill:none;stroke:black;stroke-width:1px;"/>
    <path d="M363.167,557.892L363.167,595.646" style="fill:none;stroke:black;stroke-width:1px;"/>
    <path d="M368.831,557.892L368.831,595.646" style="fill:none;stroke:black;stroke-width:1px;"/>
    <path d="M371.662,557.892L371.662,595.646" style="fill:none;stroke:black;stroke-width:1px;"/>
    <path d="M346.177,557.892L346.177,595.646" style="fill:none;stroke:black;stroke-width:1px;"/>
    <path d="M380.158,557.892L380.158,595.646" style="fill:none;stroke:black;stroke-width:1px;"/>
    <path d="M385.821,557.892L385.821,595.646" style="fill:none;stroke:black;stroke-width:1px;"/>
    <path d="M349.009,557.892L349.009,595.646" style="fill:none;stroke:black;stroke-width:1px;"/>
    <path d="M354.672,557.892L354.672,595.646" style="fill:none;stroke:black;stroke-width:1px;"/>
    <path d="M360.336,557.892L360.336,595.646" style="fill:none;stroke:black;stroke-width:1px;"/>
    <path d="M365.999,557.892L365.999,595.646" style="fill:none;stroke:black;stroke-width:1px;"/>
    <path d="M374.494,557.892L374.494,595.646" style="fill:none;stroke:black;stroke-width:1px;"/>
    <path d="M377.326,557.892L377.326,595.646" style="fill:none;stroke:black;stroke-width:1px;"/>
    <path d="M382.989,557.892L382.989,595.646" style="fill:none;stroke:black;stroke-width:1px;"/>
    <path d="M351.841,557.892L351.841,595.646" style="fill:none;stroke:black;stroke-width:1px;"/>
    <path d="M308.927,611.356L308.927,604.739L308.321,604.739C308.277,604.987 308.196,605.193 308.078,605.355C307.96,605.516 307.815,605.644 307.644,605.737C307.473,605.831 307.281,605.894 307.07,605.929C306.858,605.963 306.641,605.98 306.417,605.98L306.417,606.615L308.134,606.615L308.134,611.356L308.927,611.356Z" style="fill-rule:nonzero;"/>
    <path d="M311.391,606.531L311.391,611.356L312.185,611.356L312.185,608.351C312.185,608.257 312.208,608.141 312.255,608.001C312.301,607.861 312.376,607.725 312.479,607.595C312.581,607.464 312.715,607.352 312.88,607.259C313.045,607.165 313.242,607.119 313.473,607.119C313.653,607.119 313.801,607.145 313.916,607.198C314.031,607.251 314.123,607.325 314.191,607.422C314.26,607.518 314.308,607.632 314.336,607.763C314.364,607.893 314.378,608.036 314.378,608.192L314.378,611.356L315.171,611.356L315.171,608.351C315.171,607.977 315.283,607.679 315.507,607.455C315.731,607.231 316.039,607.119 316.431,607.119C316.624,607.119 316.781,607.147 316.903,607.203C317.024,607.259 317.119,607.335 317.187,607.431C317.256,607.528 317.302,607.641 317.327,607.772C317.352,607.903 317.365,608.043 317.365,608.192L317.365,611.356L318.158,611.356L318.158,607.819C318.158,607.57 318.119,607.357 318.041,607.179C317.963,607.002 317.855,606.857 317.715,606.745C317.575,606.633 317.407,606.551 317.211,606.498C317.015,606.445 316.795,606.419 316.553,606.419C316.235,606.419 315.944,606.49 315.68,606.633C315.415,606.776 315.202,606.979 315.041,607.24C314.941,606.941 314.77,606.73 314.527,606.605C314.285,606.481 314.014,606.419 313.715,606.419C313.037,606.419 312.517,606.692 312.157,607.24L312.138,607.24L312.138,606.531L311.391,606.531Z" style="fill-rule:nonzero;"/>
    <path d="M319.353,606.531L319.353,611.356L320.146,611.356L320.146,608.351C320.146,608.257 320.169,608.141 320.216,608.001C320.263,607.861 320.337,607.725 320.44,607.595C320.543,607.464 320.676,607.352 320.841,607.259C321.006,607.165 321.204,607.119 321.434,607.119C321.614,607.119 321.762,607.145 321.877,607.198C321.992,607.251 322.084,607.325 322.153,607.422C322.221,607.518 322.269,607.632 322.297,607.763C322.325,607.893 322.339,608.036 322.339,608.192L322.339,611.356L323.133,611.356L323.133,608.351C323.133,607.977 323.245,607.679 323.469,607.455C323.693,607.231 324.001,607.119 324.393,607.119C324.585,607.119 324.743,607.147 324.864,607.203C324.985,607.259 325.08,607.335 325.149,607.431C325.217,607.528 325.264,607.641 325.289,607.772C325.313,607.903 325.326,608.043 325.326,608.192L325.326,611.356L326.119,611.356L326.119,607.819C326.119,607.57 326.08,607.357 326.003,607.179C325.925,607.002 325.816,606.857 325.676,606.745C325.536,606.633 325.368,606.551 325.172,606.498C324.976,606.445 324.757,606.419 324.514,606.419C324.197,606.419 323.906,606.49 323.641,606.633C323.377,606.776 323.164,606.979 323.002,607.24C322.902,606.941 322.731,606.73 322.489,606.605C322.246,606.481 321.975,606.419 321.677,606.419C320.998,606.419 320.479,606.692 320.118,607.24L320.099,607.24L320.099,606.531L319.353,606.531Z" style="fill-rule:nonzero;"/>
    <path d="M262.383,557.926L262.383,595.679" style="fill:none;stroke:black;stroke-width:1px;"/>
    <path d="M268.06,557.926L268.06,595.679" style="fill:none;stroke:black;stroke-width:1px;"/>
    <path d="M273.736,557.926L273.736,595.679" style="fill:none;stroke:black;stroke-width:1px;"/>
    <path d="M279.413,557.926L279.413,595.679" style="fill:none;stroke:black;stroke-width:1px;"/>
    <path d="M251.03,557.926L251.03,595.679" style="fill:none;stroke:black;stroke-width:1px;"/>
    <path d="M285.089,557.926L285.089,595.679" style="fill:none;stroke:black;stroke-width:1px;"/>
    <path d="M290.766,557.926L290.766,595.679" style="fill:none;stroke:black;stroke-width:1px;"/>
    <path d="M256.706,557.926L256.706,595.679" style="fill:none;stroke:black;stroke-width:1px;"/>
    <path d="M260.671,611.449L260.671,604.832L260.065,604.832C260.021,605.081 259.94,605.286 259.822,605.448C259.704,605.61 259.559,605.737 259.388,605.831C259.217,605.924 259.025,605.988 258.814,606.022C258.602,606.056 258.385,606.073 258.161,606.073L258.161,606.708L259.878,606.708L259.878,611.449L260.671,611.449Z" style="fill-rule:nonzero;"/>
    <rect x="263.313" y="610.413" width="1.036" height="1.036" style="fill-rule:nonzero;"/>
    <path d="M269.519,605.644L269.519,604.944L266.253,604.944L265.637,608.379L266.318,608.416C266.473,608.229 266.652,608.079 266.855,607.963C267.057,607.848 267.289,607.791 267.55,607.791C267.774,607.791 267.978,607.828 268.161,607.903C268.345,607.977 268.502,608.082 268.633,608.215C268.763,608.349 268.864,608.508 268.936,608.691C269.007,608.875 269.043,609.076 269.043,609.293C269.043,609.555 269.006,609.783 268.931,609.979C268.857,610.175 268.755,610.339 268.628,610.469C268.5,610.6 268.351,610.698 268.18,610.763C268.009,610.829 267.83,610.861 267.643,610.861C267.444,610.861 267.262,610.832 267.097,610.773C266.932,610.714 266.789,610.63 266.668,610.521C266.547,610.412 266.45,610.284 266.379,610.138C266.307,609.992 266.265,609.835 266.253,609.667L265.459,609.667C265.465,609.965 265.525,610.233 265.637,610.469C265.749,610.706 265.901,610.903 266.094,611.062C266.287,611.221 266.509,611.342 266.761,611.426C267.013,611.51 267.282,611.552 267.569,611.552C267.954,611.552 268.292,611.491 268.581,611.37C268.871,611.249 269.112,611.085 269.305,610.88C269.497,610.675 269.642,610.44 269.739,610.175C269.835,609.911 269.883,609.639 269.883,609.359C269.883,608.979 269.827,608.648 269.715,608.365C269.603,608.082 269.451,607.845 269.258,607.655C269.065,607.466 268.838,607.324 268.577,607.231C268.315,607.137 268.038,607.091 267.746,607.091C267.522,607.091 267.296,607.13 267.069,607.207C266.842,607.285 266.657,607.405 266.514,607.567L266.495,607.548L266.85,605.644L269.519,605.644Z" style="fill-rule:nonzero;"/>
    <path d="M270.919,606.624L270.919,611.449L271.713,611.449L271.713,608.444C271.713,608.351 271.736,608.234 271.783,608.094C271.829,607.954 271.904,607.819 272.007,607.688C272.109,607.557 272.243,607.445 272.408,607.352C272.573,607.259 272.77,607.212 273.001,607.212C273.181,607.212 273.329,607.239 273.444,607.291C273.559,607.344 273.651,607.419 273.719,607.515C273.788,607.612 273.836,607.725 273.864,607.856C273.892,607.987 273.906,608.13 273.906,608.285L273.906,611.449L274.699,611.449L274.699,608.444C274.699,608.071 274.811,607.772 275.035,607.548C275.259,607.324 275.567,607.212 275.959,607.212C276.152,607.212 276.309,607.24 276.431,607.296C276.552,607.352 276.647,607.428 276.715,607.525C276.784,607.621 276.83,607.735 276.855,607.865C276.88,607.996 276.893,608.136 276.893,608.285L276.893,611.449L277.686,611.449L277.686,607.912C277.686,607.663 277.647,607.45 277.569,607.273C277.491,607.095 277.383,606.951 277.243,606.839C277.103,606.727 276.935,606.644 276.739,606.591C276.543,606.539 276.323,606.512 276.081,606.512C275.763,606.512 275.472,606.584 275.208,606.727C274.943,606.87 274.73,607.072 274.569,607.333C274.469,607.035 274.298,606.823 274.055,606.699C273.813,606.574 273.542,606.512 273.243,606.512C272.565,606.512 272.045,606.786 271.685,607.333L271.666,607.333L271.666,606.624L270.919,606.624Z" style="fill-rule:nonzero;"/>
    <path d="M278.881,606.624L278.881,611.449L279.674,611.449L279.674,608.444C279.674,608.351 279.697,608.234 279.744,608.094C279.791,607.954 279.865,607.819 279.968,607.688C280.071,607.557 280.204,607.445 280.369,607.352C280.534,607.259 280.732,607.212 280.962,607.212C281.142,607.212 281.29,607.239 281.405,607.291C281.52,607.344 281.612,607.419 281.681,607.515C281.749,607.612 281.797,607.725 281.825,607.856C281.853,607.987 281.867,608.13 281.867,608.285L281.867,611.449L282.661,611.449L282.661,608.444C282.661,608.071 282.773,607.772 282.997,607.548C283.221,607.324 283.529,607.212 283.921,607.212C284.113,607.212 284.271,607.24 284.392,607.296C284.513,607.352 284.608,607.428 284.677,607.525C284.745,607.621 284.792,607.735 284.817,607.865C284.841,607.996 284.854,608.136 284.854,608.285L284.854,611.449L285.647,611.449L285.647,607.912C285.647,607.663 285.608,607.45 285.531,607.273C285.453,607.095 285.344,606.951 285.204,606.839C285.064,606.727 284.896,606.644 284.7,606.591C284.504,606.539 284.285,606.512 284.042,606.512C283.725,606.512 283.434,606.584 283.169,606.727C282.905,606.87 282.692,607.072 282.53,607.333C282.43,607.035 282.259,606.823 282.017,606.699C281.774,606.574 281.503,606.512 281.205,606.512C280.526,606.512 280.007,606.786 279.646,607.333L279.627,607.333L279.627,606.624L278.881,606.624Z" style="fill-rule:nonzero;"/>
    <path d="M210.804,558.04L210.804,595.793" style="fill:none;stroke:black;stroke-width:1px;"/>
    <path d="M218.354,558.04L218.354,595.793" style="fill:none;stroke:black;stroke-width:1px;"/>
    <path d="M203.253,558.04L203.253,595.793" style="fill:none;stroke:black;stroke-width:1px;"/>
    <path d="M225.905,558.04L225.905,595.793" style="fill:none;stroke:black;stroke-width:1px;"/>
    <path d="M241.006,558.04L241.006,595.793" style="fill:none;stroke:black;stroke-width:1px;"/>
    <path d="M233.455,558.04L233.455,595.793" style="fill:none;stroke:black;stroke-width:1px;"/>
    <path d="M213.542,607.195L214.335,607.195C214.329,606.996 214.349,606.799 214.396,606.603C214.442,606.407 214.518,606.231 214.624,606.075C214.73,605.92 214.865,605.794 215.03,605.697C215.195,605.601 215.393,605.553 215.623,605.553C215.797,605.553 215.962,605.581 216.118,605.637C216.273,605.693 216.408,605.773 216.524,605.879C216.639,605.985 216.73,606.111 216.799,606.257C216.867,606.403 216.902,606.567 216.902,606.747C216.902,606.977 216.866,607.18 216.794,607.354C216.723,607.528 216.617,607.69 216.477,607.839C216.337,607.989 216.161,608.136 215.95,608.283C215.738,608.429 215.492,608.589 215.212,608.763C214.982,608.9 214.761,609.046 214.55,609.202C214.338,609.357 214.148,609.538 213.98,609.743C213.812,609.949 213.674,610.19 213.565,610.467C213.456,610.743 213.386,611.078 213.355,611.47L217.676,611.47L217.676,610.77L214.279,610.77C214.316,610.565 214.396,610.383 214.517,610.224C214.638,610.065 214.784,609.917 214.956,609.781C215.127,609.644 215.315,609.515 215.52,609.393C215.726,609.272 215.931,609.149 216.136,609.025C216.342,608.894 216.541,608.757 216.734,608.614C216.926,608.471 217.098,608.311 217.247,608.133C217.396,607.956 217.516,607.755 217.606,607.531C217.696,607.307 217.742,607.049 217.742,606.757C217.742,606.445 217.687,606.172 217.578,605.935C217.469,605.699 217.322,605.501 217.135,605.343C216.948,605.184 216.729,605.063 216.477,604.979C216.225,604.895 215.956,604.853 215.67,604.853C215.321,604.853 215.01,604.912 214.736,605.03C214.462,605.148 214.234,605.311 214.05,605.52C213.867,605.728 213.731,605.976 213.644,606.262C213.557,606.548 213.523,606.859 213.542,607.195Z" style="fill-rule:nonzero;"/>
    <path d="M218.918,606.645L218.918,611.47L219.711,611.47L219.711,608.465C219.711,608.371 219.734,608.255 219.781,608.115C219.828,607.975 219.902,607.839 220.005,607.709C220.108,607.578 220.241,607.466 220.406,607.373C220.571,607.279 220.769,607.233 220.999,607.233C221.179,607.233 221.327,607.259 221.442,607.312C221.557,607.365 221.649,607.439 221.718,607.536C221.786,607.632 221.834,607.746 221.862,607.877C221.89,608.007 221.904,608.15 221.904,608.306L221.904,611.47L222.698,611.47L222.698,608.465C222.698,608.091 222.81,607.793 223.034,607.569C223.258,607.345 223.566,607.233 223.958,607.233C224.15,607.233 224.308,607.261 224.429,607.317C224.55,607.373 224.645,607.449 224.714,607.545C224.782,607.642 224.829,607.755 224.854,607.886C224.878,608.017 224.891,608.157 224.891,608.306L224.891,611.47L225.684,611.47L225.684,607.933C225.684,607.684 225.645,607.471 225.568,607.293C225.49,607.116 225.381,606.971 225.241,606.859C225.101,606.747 224.933,606.665 224.737,606.612C224.541,606.559 224.322,606.533 224.079,606.533C223.762,606.533 223.471,606.604 223.206,606.747C222.942,606.89 222.729,607.093 222.567,607.354C222.467,607.055 222.296,606.844 222.054,606.719C221.811,606.595 221.54,606.533 221.242,606.533C220.563,606.533 220.044,606.806 219.683,607.354L219.664,607.354L219.664,606.645L218.918,606.645Z" style="fill-rule:nonzero;"/>
    <path d="M226.879,606.645L226.879,611.47L227.672,611.47L227.672,608.465C227.672,608.371 227.696,608.255 227.742,608.115C227.789,607.975 227.864,607.839 227.966,607.709C228.069,607.578 228.203,607.466 228.368,607.373C228.532,607.279 228.73,607.233 228.96,607.233C229.141,607.233 229.288,607.259 229.404,607.312C229.519,607.365 229.61,607.439 229.679,607.536C229.747,607.632 229.796,607.746 229.824,607.877C229.852,608.007 229.866,608.15 229.866,608.306L229.866,611.47L230.659,611.47L230.659,608.465C230.659,608.091 230.771,607.793 230.995,607.569C231.219,607.345 231.527,607.233 231.919,607.233C232.112,607.233 232.269,607.261 232.39,607.317C232.512,607.373 232.606,607.449 232.675,607.545C232.743,607.642 232.79,607.755 232.815,607.886C232.84,608.017 232.852,608.157 232.852,608.306L232.852,611.47L233.646,611.47L233.646,607.933C233.646,607.684 233.607,607.471 233.529,607.293C233.451,607.116 233.342,606.971 233.202,606.859C233.062,606.747 232.894,606.665 232.698,606.612C232.502,606.559 232.283,606.533 232.04,606.533C231.723,606.533 231.432,606.604 231.168,606.747C230.903,606.89 230.69,607.093 230.528,607.354C230.429,607.055 230.258,606.844 230.015,606.719C229.772,606.595 229.502,606.533 229.203,606.533C228.525,606.533 228.005,606.806 227.644,607.354L227.626,607.354L227.626,606.645L226.879,606.645Z" style="fill-rule:nonzero;"/>
    <path d="M351.02,607.985C351.02,607.823 351.022,607.644 351.025,607.448C351.028,607.252 351.043,607.056 351.071,606.86C351.099,606.664 351.14,606.473 351.193,606.286C351.246,606.099 351.323,605.936 351.426,605.796C351.529,605.656 351.658,605.542 351.813,605.455C351.969,605.368 352.159,605.325 352.383,605.325C352.607,605.325 352.796,605.368 352.952,605.455C353.108,605.542 353.237,605.656 353.339,605.796C353.442,605.936 353.52,606.099 353.573,606.286C353.626,606.473 353.666,606.664 353.694,606.86C353.722,607.056 353.738,607.252 353.741,607.448C353.744,607.644 353.745,607.823 353.745,607.985C353.745,608.234 353.738,608.512 353.722,608.82C353.706,609.128 353.657,609.417 353.573,609.688C353.489,609.959 353.353,610.187 353.167,610.374C352.98,610.561 352.719,610.654 352.383,610.654C352.047,610.654 351.785,610.561 351.599,610.374C351.412,610.187 351.277,609.959 351.193,609.688C351.109,609.417 351.059,609.128 351.043,608.82C351.028,608.512 351.02,608.234 351.02,607.985ZM350.18,607.994C350.18,608.237 350.186,608.489 350.199,608.75C350.211,609.011 350.242,609.266 350.292,609.515C350.342,609.764 350.413,609.999 350.507,610.22C350.6,610.441 350.728,610.635 350.889,610.803C351.051,610.971 351.255,611.104 351.501,611.2C351.746,611.296 352.04,611.345 352.383,611.345C352.731,611.345 353.027,611.296 353.269,611.2C353.512,611.104 353.714,610.971 353.876,610.803C354.038,610.635 354.165,610.441 354.259,610.22C354.352,609.999 354.424,609.764 354.473,609.515C354.523,609.266 354.554,609.011 354.567,608.75C354.579,608.489 354.585,608.237 354.585,607.994C354.585,607.751 354.579,607.499 354.567,607.238C354.554,606.977 354.523,606.722 354.473,606.473C354.424,606.224 354.352,605.987 354.259,605.763C354.165,605.539 354.038,605.343 353.876,605.175C353.714,605.007 353.51,604.874 353.265,604.774C353.019,604.674 352.725,604.625 352.383,604.625C352.04,604.625 351.746,604.674 351.501,604.774C351.255,604.874 351.051,605.007 350.889,605.175C350.728,605.343 350.6,605.539 350.507,605.763C350.413,605.987 350.342,606.224 350.292,606.473C350.242,606.722 350.211,606.977 350.199,607.238C350.186,607.499 350.18,607.751 350.18,607.994Z" style="fill-rule:nonzero;"/>
    <rect x="355.752" y="610.206" width="1.036" height="1.036" style="fill-rule:nonzero;"/>
    <path d="M362.323,605.418L362.323,604.737L358.039,604.737L358.039,605.483L361.511,605.483C361.162,605.85 360.837,606.252 360.535,606.687C360.234,607.123 359.968,607.585 359.737,608.073C359.507,608.562 359.319,609.072 359.173,609.604C359.026,610.136 358.935,610.682 358.897,611.242L359.784,611.242C359.815,610.726 359.902,610.194 360.045,609.646C360.188,609.098 360.374,608.566 360.601,608.05C360.828,607.534 361.088,607.048 361.38,606.594C361.672,606.14 361.987,605.748 362.323,605.418Z" style="fill-rule:nonzero;"/>
    <path d="M367.148,605.437L367.148,604.737L363.881,604.737L363.265,608.171L363.947,608.209C364.102,608.022 364.281,607.871 364.483,607.756C364.686,607.641 364.917,607.583 365.179,607.583C365.403,607.583 365.606,607.621 365.79,607.695C365.974,607.77 366.131,607.874 366.261,608.008C366.392,608.142 366.493,608.3 366.565,608.484C366.636,608.668 366.672,608.868 366.672,609.086C366.672,609.347 366.635,609.576 366.56,609.772C366.485,609.968 366.384,610.131 366.257,610.262C366.129,610.393 365.98,610.491 365.809,610.556C365.638,610.621 365.459,610.654 365.272,610.654C365.073,610.654 364.891,610.624 364.726,610.565C364.561,610.506 364.418,610.422 364.297,610.313C364.175,610.204 364.079,610.077 364.007,609.931C363.936,609.784 363.894,609.627 363.881,609.459L363.088,609.459C363.094,609.758 363.153,610.026 363.265,610.262C363.377,610.498 363.53,610.696 363.723,610.855C363.916,611.013 364.138,611.135 364.39,611.219C364.642,611.303 364.911,611.345 365.197,611.345C365.583,611.345 365.921,611.284 366.21,611.163C366.499,611.041 366.74,610.878 366.933,610.673C367.126,610.467 367.271,610.232 367.367,609.968C367.464,609.704 367.512,609.431 367.512,609.151C367.512,608.772 367.456,608.44 367.344,608.157C367.232,607.874 367.08,607.638 366.887,607.448C366.694,607.258 366.467,607.117 366.205,607.023C365.944,606.93 365.667,606.883 365.375,606.883C365.151,606.883 364.925,606.922 364.698,607C364.471,607.078 364.286,607.198 364.143,607.359L364.124,607.341L364.479,605.437L367.148,605.437Z" style="fill-rule:nonzero;"/>
    <path d="M368.548,606.417L368.548,611.242L369.341,611.242L369.341,608.237C369.341,608.143 369.365,608.027 369.411,607.887C369.458,607.747 369.533,607.611 369.635,607.481C369.738,607.35 369.872,607.238 370.037,607.145C370.202,607.051 370.399,607.005 370.629,607.005C370.81,607.005 370.958,607.031 371.073,607.084C371.188,607.137 371.28,607.212 371.348,607.308C371.416,607.404 371.465,607.518 371.493,607.649C371.521,607.779 371.535,607.922 371.535,608.078L371.535,611.242L372.328,611.242L372.328,608.237C372.328,607.863 372.44,607.565 372.664,607.341C372.888,607.117 373.196,607.005 373.588,607.005C373.781,607.005 373.938,607.033 374.059,607.089C374.181,607.145 374.276,607.221 374.344,607.317C374.412,607.414 374.459,607.527 374.484,607.658C374.509,607.789 374.521,607.929 374.521,608.078L374.521,611.242L375.315,611.242L375.315,607.705C375.315,607.456 375.276,607.243 375.198,607.065C375.12,606.888 375.011,606.743 374.871,606.631C374.731,606.519 374.563,606.437 374.367,606.384C374.171,606.331 373.952,606.305 373.709,606.305C373.392,606.305 373.101,606.376 372.837,606.519C372.572,606.662 372.359,606.865 372.197,607.126C372.098,606.827 371.927,606.616 371.684,606.491C371.441,606.367 371.171,606.305 370.872,606.305C370.194,606.305 369.674,606.578 369.313,607.126L369.295,607.126L369.295,606.417L368.548,606.417Z" style="fill-rule:nonzero;"/>
    <path d="M376.509,606.417L376.509,611.242L377.303,611.242L377.303,608.237C377.303,608.143 377.326,608.027 377.373,607.887C377.419,607.747 377.494,607.611 377.597,607.481C377.699,607.35 377.833,607.238 377.998,607.145C378.163,607.051 378.36,607.005 378.591,607.005C378.771,607.005 378.919,607.031 379.034,607.084C379.149,607.137 379.241,607.212 379.309,607.308C379.378,607.404 379.426,607.518 379.454,607.649C379.482,607.779 379.496,607.922 379.496,608.078L379.496,611.242L380.289,611.242L380.289,608.237C380.289,607.863 380.401,607.565 380.625,607.341C380.849,607.117 381.157,607.005 381.549,607.005C381.742,607.005 381.899,607.033 382.021,607.089C382.142,607.145 382.237,607.221 382.305,607.317C382.374,607.414 382.42,607.527 382.445,607.658C382.47,607.789 382.483,607.929 382.483,608.078L382.483,611.242L383.276,611.242L383.276,607.705C383.276,607.456 383.237,607.243 383.159,607.065C383.082,606.888 382.973,606.743 382.833,606.631C382.693,606.519 382.525,606.437 382.329,606.384C382.133,606.331 381.913,606.305 381.671,606.305C381.353,606.305 381.062,606.376 380.798,606.519C380.534,606.662 380.32,606.865 380.159,607.126C380.059,606.827 379.888,606.616 379.645,606.491C379.403,606.367 379.132,606.305 378.833,606.305C378.155,606.305 377.636,606.578 377.275,607.126L377.256,607.126L377.256,606.417L376.509,606.417Z" style="fill-rule:nonzero;"/>
    <path d="M401.549,557.892L401.549,595.646" style="fill:none;stroke:black;stroke-width:1px;"/>
    <path d="M405.744,557.892L405.744,595.646" style="fill:none;stroke:black;stroke-width:1px;"/>
    <path d="M409.939,557.892L409.939,595.646" style="fill:none;stroke:black;stroke-width:1px;"/>
    <path d="M412.036,557.892L412.036,595.646" style="fill:none;stroke:black;stroke-width:1px;"/>
    <path d="M393.159,557.892L393.159,595.646" style="fill:none;stroke:black;stroke-width:1px;"/>
    <path d="M418.328,557.892L418.328,595.646" style="fill:none;stroke:black;stroke-width:1px;"/>
    <path d="M430.913,557.892L430.913,595.646" style="fill:none;stroke:black;stroke-width:1px;"/>
    <path d="M422.523,557.892L422.523,595.646" style="fill:none;stroke:black;stroke-width:1px;"/>
    <path d="M395.257,557.892L395.257,595.646" style="fill:none;stroke:black;stroke-width:1px;"/>
    <path d="M424.62,557.892L424.62,595.646" style="fill:none;stroke:black;stroke-width:1px;"/>
    <path d="M399.452,557.892L399.452,595.646" style="fill:none;stroke:black;stroke-width:1px;"/>
    <path d="M403.646,557.892L403.646,595.646" style="fill:none;stroke:black;stroke-width:1px;"/>
    <path d="M407.841,557.892L407.841,595.646" style="fill:none;stroke:black;stroke-width:1px;"/>
    <path d="M414.133,557.892L414.133,595.646" style="fill:none;stroke:black;stroke-width:1px;"/>
    <path d="M416.231,557.892L416.231,595.646" style="fill:none;stroke:black;stroke-width:1px;"/>
    <path d="M428.815,557.892L428.815,595.646" style="fill:none;stroke:black;stroke-width:1px;"/>
    <path d="M420.426,557.892L420.426,595.646" style="fill:none;stroke:black;stroke-width:1px;"/>
    <path d="M397.354,557.892L397.354,595.646" style="fill:none;stroke:black;stroke-width:1px;"/>
    <path d="M426.718,557.892L426.718,595.646" style="fill:none;stroke:black;stroke-width:1px;"/>
    <path d="M398.208,608.099C398.208,607.937 398.209,607.758 398.213,607.562C398.216,607.366 398.231,607.17 398.259,606.974C398.287,606.778 398.328,606.587 398.381,606.4C398.433,606.213 398.511,606.05 398.614,605.91C398.717,605.77 398.846,605.656 399.001,605.569C399.157,605.482 399.347,605.439 399.571,605.439C399.795,605.439 399.984,605.482 400.14,605.569C400.295,605.656 400.425,605.77 400.527,605.91C400.63,606.05 400.708,606.213 400.761,606.4C400.813,606.587 400.854,606.778 400.882,606.974C400.91,607.17 400.925,607.366 400.929,607.562C400.932,607.758 400.933,607.937 400.933,608.099C400.933,608.347 400.925,608.626 400.91,608.934C400.894,609.242 400.845,609.531 400.761,609.802C400.677,610.073 400.541,610.301 400.355,610.488C400.168,610.675 399.907,610.768 399.571,610.768C399.235,610.768 398.973,610.675 398.787,610.488C398.6,610.301 398.465,610.073 398.381,609.802C398.297,609.531 398.247,609.242 398.231,608.934C398.216,608.626 398.208,608.347 398.208,608.099ZM397.368,608.108C397.368,608.351 397.374,608.603 397.387,608.864C397.399,609.125 397.43,609.38 397.48,609.629C397.53,609.878 397.601,610.113 397.695,610.334C397.788,610.555 397.915,610.749 398.077,610.917C398.239,611.085 398.443,611.217 398.689,611.314C398.934,611.41 399.228,611.459 399.571,611.459C399.919,611.459 400.215,611.41 400.457,611.314C400.7,611.217 400.902,611.085 401.064,610.917C401.226,610.749 401.353,610.555 401.447,610.334C401.54,610.113 401.611,609.878 401.661,609.629C401.711,609.38 401.742,609.125 401.755,608.864C401.767,608.603 401.773,608.351 401.773,608.108C401.773,607.865 401.767,607.613 401.755,607.352C401.742,607.091 401.711,606.835 401.661,606.587C401.611,606.338 401.54,606.101 401.447,605.877C401.353,605.653 401.226,605.457 401.064,605.289C400.902,605.121 400.698,604.987 400.453,604.888C400.207,604.788 399.913,604.739 399.571,604.739C399.228,604.739 398.934,604.788 398.689,604.888C398.443,604.987 398.239,605.121 398.077,605.289C397.915,605.457 397.788,605.653 397.695,605.877C397.601,606.101 397.53,606.338 397.48,606.587C397.43,606.835 397.399,607.091 397.387,607.352C397.374,607.613 397.368,607.865 397.368,608.108Z" style="fill-rule:nonzero;"/>
    <rect x="402.94" y="610.32" width="1.036" height="1.036" style="fill-rule:nonzero;"/>
    <path d="M409.147,605.551L409.147,604.851L405.88,604.851L405.264,608.285L405.945,608.323C406.101,608.136 406.28,607.985 406.482,607.87C406.684,607.755 406.916,607.697 407.177,607.697C407.401,607.697 407.605,607.735 407.789,607.809C407.972,607.884 408.129,607.988 408.26,608.122C408.391,608.256 408.492,608.414 408.563,608.598C408.635,608.781 408.671,608.982 408.671,609.2C408.671,609.461 408.633,609.69 408.559,609.886C408.484,610.082 408.383,610.245 408.255,610.376C408.128,610.507 407.978,610.605 407.807,610.67C407.636,610.735 407.457,610.768 407.271,610.768C407.071,610.768 406.889,610.738 406.725,610.679C406.56,610.62 406.417,610.536 406.295,610.427C406.174,610.318 406.077,610.191 406.006,610.045C405.934,609.898 405.892,609.741 405.88,609.573L405.087,609.573C405.093,609.872 405.152,610.139 405.264,610.376C405.376,610.612 405.528,610.81 405.721,610.969C405.914,611.127 406.137,611.249 406.389,611.333C406.641,611.417 406.91,611.459 407.196,611.459C407.582,611.459 407.919,611.398 408.209,611.277C408.498,611.155 408.739,610.992 408.932,610.787C409.125,610.581 409.269,610.346 409.366,610.082C409.462,609.817 409.511,609.545 409.511,609.265C409.511,608.886 409.455,608.554 409.343,608.271C409.231,607.988 409.078,607.752 408.885,607.562C408.692,607.372 408.465,607.231 408.204,607.137C407.943,607.044 407.666,606.997 407.373,606.997C407.149,606.997 406.924,607.036 406.697,607.114C406.469,607.192 406.284,607.311 406.141,607.473L406.123,607.455L406.477,605.551L409.147,605.551Z" style="fill-rule:nonzero;"/>
    <path d="M410.547,606.531L410.547,611.356L411.34,611.356L411.34,608.351C411.34,608.257 411.363,608.141 411.41,608.001C411.457,607.861 411.531,607.725 411.634,607.595C411.737,607.464 411.87,607.352 412.035,607.259C412.2,607.165 412.398,607.119 412.628,607.119C412.808,607.119 412.956,607.145 413.071,607.198C413.186,607.251 413.278,607.325 413.347,607.422C413.415,607.518 413.463,607.632 413.491,607.763C413.519,607.893 413.533,608.036 413.533,608.192L413.533,611.356L414.327,611.356L414.327,608.351C414.327,607.977 414.439,607.679 414.663,607.455C414.887,607.231 415.195,607.119 415.587,607.119C415.779,607.119 415.937,607.147 416.058,607.203C416.179,607.259 416.274,607.335 416.343,607.431C416.411,607.528 416.458,607.641 416.483,607.772C416.507,607.903 416.52,608.043 416.52,608.192L416.52,611.356L417.313,611.356L417.313,607.819C417.313,607.57 417.274,607.357 417.197,607.179C417.119,607.002 417.01,606.857 416.87,606.745C416.73,606.633 416.562,606.551 416.366,606.498C416.17,606.445 415.951,606.419 415.708,606.419C415.391,606.419 415.1,606.49 414.835,606.633C414.571,606.776 414.358,606.979 414.196,607.24C414.096,606.941 413.925,606.73 413.683,606.605C413.44,606.481 413.169,606.419 412.871,606.419C412.192,606.419 411.673,606.692 411.312,607.24L411.293,607.24L411.293,606.531L410.547,606.531Z" style="fill-rule:nonzero;"/>
    <path d="M418.508,606.531L418.508,611.356L419.301,611.356L419.301,608.351C419.301,608.257 419.325,608.141 419.371,608.001C419.418,607.861 419.493,607.725 419.595,607.595C419.698,607.464 419.832,607.352 419.997,607.259C420.161,607.165 420.359,607.119 420.589,607.119C420.77,607.119 420.917,607.145 421.033,607.198C421.148,607.251 421.239,607.325 421.308,607.422C421.376,607.518 421.425,607.632 421.453,607.763C421.481,607.893 421.495,608.036 421.495,608.192L421.495,611.356L422.288,611.356L422.288,608.351C422.288,607.977 422.4,607.679 422.624,607.455C422.848,607.231 423.156,607.119 423.548,607.119C423.741,607.119 423.898,607.147 424.019,607.203C424.141,607.259 424.235,607.335 424.304,607.431C424.372,607.528 424.419,607.641 424.444,607.772C424.469,607.903 424.481,608.043 424.481,608.192L424.481,611.356L425.275,611.356L425.275,607.819C425.275,607.57 425.236,607.357 425.158,607.179C425.08,607.002 424.971,606.857 424.831,606.745C424.691,606.633 424.523,606.551 424.327,606.498C424.131,606.445 423.912,606.419 423.669,606.419C423.352,606.419 423.061,606.49 422.797,606.633C422.532,606.776 422.319,606.979 422.157,607.24C422.058,606.941 421.887,606.73 421.644,606.605C421.401,606.481 421.131,606.419 420.832,606.419C420.154,606.419 419.634,606.692 419.273,607.24L419.255,607.24L419.255,606.531L418.508,606.531Z" style="fill-rule:nonzero;"/>
    <path d="M445.782,557.892L445.782,595.646" style="fill:none;stroke:black;stroke-width:1.07px;"/>
    <path d="M451.025,557.892L451.025,595.646" style="fill:none;stroke:black;stroke-width:1.07px;"/>
    <path d="M455.22,557.892L455.22,595.646" style="fill:none;stroke:black;stroke-width:1.07px;"/>
    <path d="M456.269,557.892L456.269,595.646" style="fill:none;stroke:black;stroke-width:1.07px;"/>
    <path d="M438.441,557.892L438.441,595.646" style="fill:none;stroke:black;stroke-width:1.07px;"/>
    <path d="M462.561,557.892L462.561,595.646" style="fill:none;stroke:black;stroke-width:1.07px;"/>
    <path d="M476.194,557.892L476.194,595.646" style="fill:none;stroke:black;stroke-width:1.07px;"/>
    <path d="M467.804,557.892L467.804,595.646" style="fill:none;stroke:black;stroke-width:1.07px;"/>
    <path d="M439.489,557.892L439.489,595.646" style="fill:none;stroke:black;stroke-width:1.07px;"/>
    <path d="M469.902,557.892L469.902,595.646" style="fill:none;stroke:black;stroke-width:1.07px;"/>
    <path d="M443.684,557.892L443.684,595.646" style="fill:none;stroke:black;stroke-width:1.07px;"/>
    <path d="M447.879,557.892L447.879,595.646" style="fill:none;stroke:black;stroke-width:1.07px;"/>
    <path d="M453.122,557.892L453.122,595.646" style="fill:none;stroke:black;stroke-width:1.07px;"/>
    <path d="M458.366,557.892L458.366,595.646" style="fill:none;stroke:black;stroke-width:1.07px;"/>
    <path d="M460.463,557.892L460.463,595.646" style="fill:none;stroke:black;stroke-width:1.07px;"/>
    <path d="M474.096,557.892L474.096,595.646" style="fill:none;stroke:black;stroke-width:1.07px;"/>
    <path d="M465.707,557.892L465.707,595.646" style="fill:none;stroke:black;stroke-width:1.07px;"/>
    <path d="M441.587,557.892L441.587,595.646" style="fill:none;stroke:black;stroke-width:1.07px;"/>
    <path d="M470.95,557.892L470.95,595.646" style="fill:none;stroke:black;stroke-width:1.07px;"/>
    <path d="M446.83,557.892L446.83,595.646" style="fill:none;stroke:black;stroke-width:1.07px;"/>
    <path d="M449.976,557.892L449.976,595.646" style="fill:none;stroke:black;stroke-width:1.07px;"/>
    <path d="M454.171,557.892L454.171,595.646" style="fill:none;stroke:black;stroke-width:1.07px;"/>
    <path d="M457.317,557.892L457.317,595.646" style="fill:none;stroke:black;stroke-width:1.07px;"/>
    <path d="M463.609,557.892L463.609,595.646" style="fill:none;stroke:black;stroke-width:1.07px;"/>
    <path d="M475.145,557.892L475.145,595.646" style="fill:none;stroke:black;stroke-width:1.07px;"/>
    <path d="M466.756,557.892L466.756,595.646" style="fill:none;stroke:black;stroke-width:1.07px;"/>
    <path d="M440.538,557.892L440.538,595.646" style="fill:none;stroke:black;stroke-width:1.07px;"/>
    <path d="M468.853,557.892L468.853,595.646" style="fill:none;stroke:black;stroke-width:1.07px;"/>
    <path d="M444.733,557.892L444.733,595.646" style="fill:none;stroke:black;stroke-width:1.07px;"/>
    <path d="M448.928,557.892L448.928,595.646" style="fill:none;stroke:black;stroke-width:1.07px;"/>
    <path d="M452.074,557.892L452.074,595.646" style="fill:none;stroke:black;stroke-width:1.07px;"/>
    <path d="M459.415,557.892L459.415,595.646" style="fill:none;stroke:black;stroke-width:1.07px;"/>
    <path d="M461.512,557.892L461.512,595.646" style="fill:none;stroke:black;stroke-width:1.07px;"/>
    <path d="M473.048,557.892L473.048,595.646" style="fill:none;stroke:black;stroke-width:1.07px;"/>
    <path d="M464.658,557.892L464.658,595.646" style="fill:none;stroke:black;stroke-width:1.07px;"/>
    <path d="M442.635,557.892L442.635,595.646" style="fill:none;stroke:black;stroke-width:1.07px;"/>
    <path d="M471.999,557.892L471.999,595.646" style="fill:none;stroke:black;stroke-width:1.07px;"/>
    <path d="M440.895,608.099C440.895,607.937 440.896,607.758 440.899,607.562C440.902,607.366 440.918,607.17 440.946,606.974C440.974,606.778 441.014,606.587 441.067,606.4C441.12,606.213 441.198,606.05 441.301,605.91C441.403,605.77 441.532,605.656 441.688,605.569C441.844,605.482 442.033,605.439 442.257,605.439C442.481,605.439 442.671,605.482 442.827,605.569C442.982,605.656 443.111,605.77 443.214,605.91C443.317,606.05 443.394,606.213 443.447,606.4C443.5,606.587 443.541,606.778 443.569,606.974C443.597,607.17 443.612,607.366 443.615,607.562C443.618,607.758 443.62,607.937 443.62,608.099C443.62,608.347 443.612,608.626 443.597,608.934C443.581,609.242 443.531,609.531 443.447,609.802C443.363,610.073 443.228,610.301 443.041,610.488C442.855,610.675 442.593,610.768 442.257,610.768C441.921,610.768 441.66,610.675 441.473,610.488C441.287,610.301 441.151,610.073 441.067,609.802C440.983,609.531 440.934,609.242 440.918,608.934C440.902,608.626 440.895,608.347 440.895,608.099ZM440.055,608.108C440.055,608.351 440.061,608.603 440.073,608.864C440.086,609.125 440.117,609.38 440.167,609.629C440.216,609.878 440.288,610.113 440.381,610.334C440.475,610.555 440.602,610.749 440.764,610.917C440.926,611.085 441.13,611.217 441.375,611.314C441.621,611.41 441.915,611.459 442.257,611.459C442.606,611.459 442.901,611.41 443.144,611.314C443.387,611.217 443.589,611.085 443.751,610.917C443.912,610.749 444.04,610.555 444.133,610.334C444.227,610.113 444.298,609.878 444.348,609.629C444.398,609.38 444.429,609.125 444.441,608.864C444.454,608.603 444.46,608.351 444.46,608.108C444.46,607.865 444.454,607.613 444.441,607.352C444.429,607.091 444.398,606.835 444.348,606.587C444.298,606.338 444.227,606.101 444.133,605.877C444.04,605.653 443.912,605.457 443.751,605.289C443.589,605.121 443.385,604.987 443.139,604.888C442.894,604.788 442.6,604.739 442.257,604.739C441.915,604.739 441.621,604.788 441.375,604.888C441.13,604.987 440.926,605.121 440.764,605.289C440.602,605.457 440.475,605.653 440.381,605.877C440.288,606.101 440.216,606.338 440.167,606.587C440.117,606.835 440.086,607.091 440.073,607.352C440.061,607.613 440.055,607.865 440.055,608.108Z" style="fill-rule:nonzero;"/>
    <rect x="445.627" y="610.32" width="1.036" height="1.036" style="fill-rule:nonzero;"/>
    <path d="M447.857,607.081L448.651,607.081C448.644,606.882 448.665,606.685 448.711,606.489C448.758,606.293 448.834,606.117 448.94,605.961C449.046,605.806 449.181,605.68 449.346,605.583C449.511,605.487 449.708,605.439 449.939,605.439C450.113,605.439 450.278,605.467 450.433,605.523C450.589,605.579 450.724,605.659 450.839,605.765C450.954,605.871 451.046,605.997 451.115,606.143C451.183,606.289 451.217,606.453 451.217,606.633C451.217,606.863 451.182,607.066 451.11,607.24C451.038,607.414 450.933,607.576 450.793,607.725C450.653,607.875 450.477,608.022 450.265,608.169C450.054,608.315 449.808,608.475 449.528,608.649C449.298,608.786 449.077,608.932 448.865,609.088C448.654,609.243 448.464,609.424 448.296,609.629C448.128,609.835 447.99,610.076 447.881,610.353C447.772,610.629 447.702,610.964 447.671,611.356L451.992,611.356L451.992,610.656L448.595,610.656C448.632,610.451 448.711,610.269 448.833,610.11C448.954,609.951 449.1,609.803 449.271,609.667C449.442,609.53 449.631,609.401 449.836,609.279C450.041,609.158 450.247,609.035 450.452,608.911C450.657,608.78 450.856,608.643 451.049,608.5C451.242,608.357 451.413,608.197 451.563,608.019C451.712,607.842 451.832,607.641 451.922,607.417C452.012,607.193 452.057,606.935 452.057,606.643C452.057,606.331 452.003,606.058 451.894,605.821C451.785,605.585 451.637,605.387 451.451,605.229C451.264,605.07 451.045,604.949 450.793,604.865C450.541,604.781 450.272,604.739 449.985,604.739C449.637,604.739 449.326,604.798 449.052,604.916C448.778,605.034 448.55,605.197 448.366,605.406C448.182,605.614 448.047,605.862 447.96,606.148C447.873,606.434 447.839,606.745 447.857,607.081Z" style="fill-rule:nonzero;"/>
    <path d="M457.023,605.551L457.023,604.851L453.756,604.851L453.14,608.285L453.821,608.323C453.977,608.136 454.156,607.985 454.358,607.87C454.56,607.755 454.792,607.697 455.053,607.697C455.277,607.697 455.481,607.735 455.665,607.809C455.848,607.884 456.005,607.988 456.136,608.122C456.267,608.256 456.368,608.414 456.439,608.598C456.511,608.781 456.547,608.982 456.547,609.2C456.547,609.461 456.509,609.69 456.435,609.886C456.36,610.082 456.259,610.245 456.131,610.376C456.004,610.507 455.854,610.605 455.683,610.67C455.512,610.735 455.333,610.768 455.147,610.768C454.948,610.768 454.766,610.738 454.601,610.679C454.436,610.62 454.293,610.536 454.171,610.427C454.05,610.318 453.954,610.191 453.882,610.045C453.81,609.898 453.768,609.741 453.756,609.573L452.963,609.573C452.969,609.872 453.028,610.139 453.14,610.376C453.252,610.612 453.404,610.81 453.597,610.969C453.79,611.127 454.013,611.249 454.265,611.333C454.517,611.417 454.786,611.459 455.072,611.459C455.458,611.459 455.795,611.398 456.085,611.277C456.374,611.155 456.615,610.992 456.808,610.787C457.001,610.581 457.146,610.346 457.242,610.082C457.338,609.817 457.387,609.545 457.387,609.265C457.387,608.886 457.331,608.554 457.219,608.271C457.107,607.988 456.954,607.752 456.761,607.562C456.568,607.372 456.341,607.231 456.08,607.137C455.819,607.044 455.542,606.997 455.249,606.997C455.025,606.997 454.8,607.036 454.573,607.114C454.346,607.192 454.16,607.311 454.017,607.473L453.999,607.455L454.353,605.551L457.023,605.551Z" style="fill-rule:nonzero;"/>
    <path d="M458.423,606.531L458.423,611.356L459.216,611.356L459.216,608.351C459.216,608.257 459.239,608.141 459.286,608.001C459.333,607.861 459.407,607.725 459.51,607.595C459.613,607.464 459.746,607.352 459.911,607.259C460.076,607.165 460.274,607.119 460.504,607.119C460.684,607.119 460.832,607.145 460.947,607.198C461.062,607.251 461.154,607.325 461.223,607.422C461.291,607.518 461.339,607.632 461.367,607.763C461.395,607.893 461.409,608.036 461.409,608.192L461.409,611.356L462.203,611.356L462.203,608.351C462.203,607.977 462.315,607.679 462.539,607.455C462.763,607.231 463.071,607.119 463.463,607.119C463.656,607.119 463.813,607.147 463.934,607.203C464.055,607.259 464.15,607.335 464.219,607.431C464.287,607.528 464.334,607.641 464.359,607.772C464.384,607.903 464.396,608.043 464.396,608.192L464.396,611.356L465.189,611.356L465.189,607.819C465.189,607.57 465.15,607.357 465.073,607.179C464.995,607.002 464.886,606.857 464.746,606.745C464.606,606.633 464.438,606.551 464.242,606.498C464.046,606.445 463.827,606.419 463.584,606.419C463.267,606.419 462.976,606.49 462.711,606.633C462.447,606.776 462.234,606.979 462.072,607.24C461.972,606.941 461.801,606.73 461.559,606.605C461.316,606.481 461.045,606.419 460.747,606.419C460.068,606.419 459.549,606.692 459.188,607.24L459.169,607.24L459.169,606.531L458.423,606.531Z" style="fill-rule:nonzero;"/>
    <path d="M466.384,606.531L466.384,611.356L467.177,611.356L467.177,608.351C467.177,608.257 467.201,608.141 467.247,608.001C467.294,607.861 467.369,607.725 467.471,607.595C467.574,607.464 467.708,607.352 467.873,607.259C468.038,607.165 468.235,607.119 468.465,607.119C468.646,607.119 468.794,607.145 468.909,607.198C469.024,607.251 469.116,607.325 469.184,607.422C469.252,607.518 469.301,607.632 469.329,607.763C469.357,607.893 469.371,608.036 469.371,608.192L469.371,611.356L470.164,611.356L470.164,608.351C470.164,607.977 470.276,607.679 470.5,607.455C470.724,607.231 471.032,607.119 471.424,607.119C471.617,607.119 471.774,607.147 471.895,607.203C472.017,607.259 472.112,607.335 472.18,607.431C472.248,607.528 472.295,607.641 472.32,607.772C472.345,607.903 472.357,608.043 472.357,608.192L472.357,611.356L473.151,611.356L473.151,607.819C473.151,607.57 473.112,607.357 473.034,607.179C472.956,607.002 472.847,606.857 472.707,606.745C472.567,606.633 472.399,606.551 472.203,606.498C472.007,606.445 471.788,606.419 471.545,606.419C471.228,606.419 470.937,606.49 470.673,606.633C470.408,606.776 470.195,606.979 470.033,607.24C469.934,606.941 469.763,606.73 469.52,606.605C469.277,606.481 469.007,606.419 468.708,606.419C468.03,606.419 467.51,606.692 467.149,607.24L467.131,607.24L467.131,606.531L466.384,606.531Z" style="fill-rule:nonzero;"/>
    <circle cx="521.959" cy="576.769" r="8.688" style="fill:none;stroke:black;stroke-width:1px;"/>
    <circle cx="521.959" cy="576.769" r="12.112" style="fill:none;stroke:black;stroke-width:1px;"/>
    <circle cx="521.959" cy="576.769" r="15.48" style="fill:none;stroke:black;stroke-width:1px;"/>
    <path id="polyline189031" d="M614.814,591.293L614.814,573.698" style="fill:none;fill-rule:nonzero;stroke:black;stroke-width:0.4px;stroke-linecap:butt;stroke-linejoin:miter;stroke-miterlimit:4;"/>
    <path id="polyline189033" d="M628.762,569.149L628.762,586.743" style="fill:none;fill-rule:nonzero;stroke:black;stroke-width:0.4px;stroke-linecap:butt;stroke-linejoin:miter;stroke-miterlimit:4;"/>
    <path id="polyline189035" d="M616.515,573.144L614.814,575.08" style="fill:none;fill-rule:nonzero;stroke:black;stroke-width:0.4px;stroke-linecap:butt;stroke-linejoin:miter;stroke-miterlimit:4;"/>
    <path id="polyline189037" d="M618.653,572.447L614.814,576.816" style="fill:none;fill-rule:nonzero;stroke:black;stroke-width:0.4px;stroke-linecap:butt;stroke-linejoin:miter;stroke-miterlimit:4;"/>
    <path id="polyline189039" d="M620.791,571.748L614.814,578.554" style="fill:none;fill-rule:nonzero;stroke:black;stroke-width:0.4px;stroke-linecap:butt;stroke-linejoin:miter;stroke-miterlimit:4;"/>
    <path id="polyline189041" d="M622.93,571.051L614.814,580.29" style="fill:none;fill-rule:nonzero;stroke:black;stroke-width:0.4px;stroke-linecap:butt;stroke-linejoin:miter;stroke-miterlimit:4;"/>
    <path id="polyline189043" d="M625.069,570.353L614.814,582.026" style="fill:none;fill-rule:nonzero;stroke:black;stroke-width:0.4px;stroke-linecap:butt;stroke-linejoin:miter;stroke-miterlimit:4;"/>
    <path id="polyline189045" d="M627.207,569.656L614.814,583.764" style="fill:none;fill-rule:nonzero;stroke:black;stroke-width:0.4px;stroke-linecap:butt;stroke-linejoin:miter;stroke-miterlimit:4;"/>
    <path id="polyline189047" d="M628.762,569.624L614.814,585.5" style="fill:none;fill-rule:nonzero;stroke:black;stroke-width:0.4px;stroke-linecap:butt;stroke-linejoin:miter;stroke-miterlimit:4;"/>
    <path id="polyline189049" d="M628.762,571.362L614.814,587.238" style="fill:none;fill-rule:nonzero;stroke:black;stroke-width:0.4px;stroke-linecap:butt;stroke-linejoin:miter;stroke-miterlimit:4;"/>
    <path id="polyline189051" d="M628.762,573.098L614.814,588.974" style="fill:none;fill-rule:nonzero;stroke:black;stroke-width:0.4px;stroke-linecap:butt;stroke-linejoin:miter;stroke-miterlimit:4;"/>
    <path id="polyline189053" d="M628.762,574.834L614.814,590.71" style="fill:none;fill-rule:nonzero;stroke:black;stroke-width:0.4px;stroke-linecap:butt;stroke-linejoin:miter;stroke-miterlimit:4;"/>
    <path id="polyline189055" d="M628.762,576.572L616.237,590.828" style="fill:none;fill-rule:nonzero;stroke:black;stroke-width:0.4px;stroke-linecap:butt;stroke-linejoin:miter;stroke-miterlimit:4;"/>
    <path id="polyline189057" d="M628.762,578.308L618.375,590.131" style="fill:none;fill-rule:nonzero;stroke:black;stroke-width:0.4px;stroke-linecap:butt;stroke-linejoin:miter;stroke-miterlimit:4;"/>
    <path id="polyline189059" d="M628.762,580.046L620.513,589.433" style="fill:none;fill-rule:nonzero;stroke:black;stroke-width:0.4px;stroke-linecap:butt;stroke-linejoin:miter;stroke-miterlimit:4;"/>
    <path id="polyline189061" d="M628.762,581.782L622.651,588.736" style="fill:none;fill-rule:nonzero;stroke:black;stroke-width:0.4px;stroke-linecap:butt;stroke-linejoin:miter;stroke-miterlimit:4;"/>
    <path id="polyline189063" d="M628.762,583.518L624.791,588.039" style="fill:none;fill-rule:nonzero;stroke:black;stroke-width:0.4px;stroke-linecap:butt;stroke-linejoin:miter;stroke-miterlimit:4;"/>
    <path id="polyline189065" d="M628.762,585.256L626.929,587.34" style="fill:none;fill-rule:nonzero;stroke:black;stroke-width:0.4px;stroke-linecap:butt;stroke-linejoin:miter;stroke-miterlimit:4;"/>
    <path id="polyline189067" d="M602.135,586.289L602.135,568.695" style="fill:none;fill-rule:nonzero;stroke:black;stroke-width:0.4px;stroke-linecap:butt;stroke-linejoin:miter;stroke-miterlimit:4;"/>
    <path id="polyline189069" d="M617.603,585.104L617.603,578.066L620.392,577.157L620.392,584.195L617.603,585.104" style="fill:none;fill-rule:nonzero;stroke:black;stroke-width:0.4px;stroke-linecap:butt;stroke-linejoin:miter;stroke-miterlimit:4;"/>
    <path id="polyline189071" d="M618.569,577.752L617.603,578.852" style="fill:none;fill-rule:nonzero;stroke:black;stroke-width:0.4px;stroke-linecap:butt;stroke-linejoin:miter;stroke-miterlimit:4;"/>
    <path id="polyline189073" d="M620.392,577.414L617.603,580.588" style="fill:none;fill-rule:nonzero;stroke:black;stroke-width:0.4px;stroke-linecap:butt;stroke-linejoin:miter;stroke-miterlimit:4;"/>
    <path id="polyline189075" d="M620.392,579.15L617.603,582.326" style="fill:none;fill-rule:nonzero;stroke:black;stroke-width:0.4px;stroke-linecap:butt;stroke-linejoin:miter;stroke-miterlimit:4;"/>
    <path id="polyline189077" d="M620.392,580.886L617.603,584.062" style="fill:none;fill-rule:nonzero;stroke:black;stroke-width:0.4px;stroke-linecap:butt;stroke-linejoin:miter;stroke-miterlimit:4;"/>
    <path id="polyline189079" d="M620.392,582.624L618.459,584.825" style="fill:none;fill-rule:nonzero;stroke:black;stroke-width:0.4px;stroke-linecap:butt;stroke-linejoin:miter;stroke-miterlimit:4;"/>
    <path id="polyline189081" d="M623.182,583.284L623.182,576.248L625.971,575.337L625.971,582.375L623.182,583.284" style="fill:none;fill-rule:nonzero;stroke:black;stroke-width:0.4px;stroke-linecap:butt;stroke-linejoin:miter;stroke-miterlimit:4;"/>
    <path id="polyline189083" d="M624.985,575.659L623.182,577.712" style="fill:none;fill-rule:nonzero;stroke:black;stroke-width:0.4px;stroke-linecap:butt;stroke-linejoin:miter;stroke-miterlimit:4;"/>
    <path id="polyline189085" d="M625.971,576.274L623.182,579.448" style="fill:none;fill-rule:nonzero;stroke:black;stroke-width:0.4px;stroke-linecap:butt;stroke-linejoin:miter;stroke-miterlimit:4;"/>
    <path id="polyline189087" d="M625.971,578.01L623.182,581.186" style="fill:none;fill-rule:nonzero;stroke:black;stroke-width:0.4px;stroke-linecap:butt;stroke-linejoin:miter;stroke-miterlimit:4;"/>
    <path id="polyline189089" d="M625.971,579.746L623.182,582.922" style="fill:none;fill-rule:nonzero;stroke:black;stroke-width:0.4px;stroke-linecap:butt;stroke-linejoin:miter;stroke-miterlimit:4;"/>
    <path id="polyline189091" d="M625.971,581.484L624.874,582.732" style="fill:none;fill-rule:nonzero;stroke:black;stroke-width:0.4px;stroke-linecap:butt;stroke-linejoin:miter;stroke-miterlimit:4;"/>
    <path id="polyline189093" d="M604.67,582.011L604.67,574.973L607.206,575.974L607.206,583.012L604.67,582.011" style="fill:none;fill-rule:nonzero;stroke:black;stroke-width:0.4px;stroke-linecap:butt;stroke-linejoin:miter;stroke-miterlimit:4;"/>
    <path id="polyline189095" d="M602.135,568.695L609.109,557.623L621.788,562.627L614.814,573.698L602.135,568.695" style="fill:none;fill-rule:nonzero;stroke:black;stroke-width:0.4px;stroke-linecap:butt;stroke-linejoin:miter;stroke-miterlimit:4;"/>
    <path id="polyline189097" d="M621.788,562.627L628.762,569.149" style="fill:none;fill-rule:nonzero;stroke:black;stroke-width:0.4px;stroke-linecap:butt;stroke-linejoin:miter;stroke-miterlimit:4;"/>
    <path id="polyline189099" d="M622.289,563.096L619.471,566.306" style="fill:none;fill-rule:nonzero;stroke:black;stroke-width:0.4px;stroke-linecap:butt;stroke-linejoin:miter;stroke-miterlimit:4;"/>
    <path id="polyline189101" d="M623.127,563.88L615.606,572.442" style="fill:none;fill-rule:nonzero;stroke:black;stroke-width:0.4px;stroke-linecap:butt;stroke-linejoin:miter;stroke-miterlimit:4;"/>
    <path id="polyline189103" d="M623.964,564.663L616.515,573.144" style="fill:none;fill-rule:nonzero;stroke:black;stroke-width:0.4px;stroke-linecap:butt;stroke-linejoin:miter;stroke-miterlimit:4;"/>
    <path id="polyline189105" d="M624.802,565.447L618.653,572.447" style="fill:none;fill-rule:nonzero;stroke:black;stroke-width:0.4px;stroke-linecap:butt;stroke-linejoin:miter;stroke-miterlimit:4;"/>
    <path id="polyline189107" d="M625.639,566.229L620.791,571.748" style="fill:none;fill-rule:nonzero;stroke:black;stroke-width:0.4px;stroke-linecap:butt;stroke-linejoin:miter;stroke-miterlimit:4;"/>
    <path id="polyline189109" d="M626.477,567.013L622.93,571.051" style="fill:none;fill-rule:nonzero;stroke:black;stroke-width:0.4px;stroke-linecap:butt;stroke-linejoin:miter;stroke-miterlimit:4;"/>
    <path id="polyline189111" d="M627.314,567.796L625.069,570.353" style="fill:none;fill-rule:nonzero;stroke:black;stroke-width:0.4px;stroke-linecap:butt;stroke-linejoin:miter;stroke-miterlimit:4;"/>
    <path id="polyline189113" d="M628.152,568.58L627.207,569.656" style="fill:none;fill-rule:nonzero;stroke:black;stroke-width:0.4px;stroke-linecap:butt;stroke-linejoin:miter;stroke-miterlimit:4;"/>
    <path id="polyline189115" d="M614.814,599.424L614.814,591.293" style="fill:none;fill-rule:nonzero;stroke:black;stroke-width:0.4px;stroke-linecap:butt;stroke-linejoin:miter;stroke-miterlimit:4;"/>
    <path id="polyline189117" d="M628.762,586.743L628.762,599.424" style="fill:none;fill-rule:nonzero;stroke:black;stroke-width:0.4px;stroke-linecap:butt;stroke-linejoin:miter;stroke-miterlimit:4;"/>
    <path id="polyline189119" d="M616.237,590.828L614.814,592.448" style="fill:none;fill-rule:nonzero;stroke:black;stroke-width:0.4px;stroke-linecap:butt;stroke-linejoin:miter;stroke-miterlimit:4;"/>
    <path id="polyline189121" d="M618.375,590.131L614.814,594.184" style="fill:none;fill-rule:nonzero;stroke:black;stroke-width:0.4px;stroke-linecap:butt;stroke-linejoin:miter;stroke-miterlimit:4;"/>
    <path id="polyline189123" d="M620.513,589.433L614.814,595.922" style="fill:none;fill-rule:nonzero;stroke:black;stroke-width:0.4px;stroke-linecap:butt;stroke-linejoin:miter;stroke-miterlimit:4;"/>
    <path id="polyline189125" d="M622.651,588.736L614.814,597.658" style="fill:none;fill-rule:nonzero;stroke:black;stroke-width:0.4px;stroke-linecap:butt;stroke-linejoin:miter;stroke-miterlimit:4;"/>
    <path id="polyline189127" d="M624.791,588.039L614.814,599.394" style="fill:none;fill-rule:nonzero;stroke:black;stroke-width:0.4px;stroke-linecap:butt;stroke-linejoin:miter;stroke-miterlimit:4;"/>
    <path id="polyline189129" d="M626.929,587.34L616.315,599.424" style="fill:none;fill-rule:nonzero;stroke:black;stroke-width:0.4px;stroke-linecap:butt;stroke-linejoin:miter;stroke-miterlimit:4;"/>
    <path id="polyline189131" d="M628.762,586.992L617.84,599.424" style="fill:none;fill-rule:nonzero;stroke:black;stroke-width:0.4px;stroke-linecap:butt;stroke-linejoin:miter;stroke-miterlimit:4;"/>
    <path id="polyline189133" d="M628.762,588.73L619.365,599.424" style="fill:none;fill-rule:nonzero;stroke:black;stroke-width:0.4px;stroke-linecap:butt;stroke-linejoin:miter;stroke-miterlimit:4;"/>
    <path id="polyline189135" d="M628.762,590.466L620.892,599.424" style="fill:none;fill-rule:nonzero;stroke:black;stroke-width:0.4px;stroke-linecap:butt;stroke-linejoin:miter;stroke-miterlimit:4;"/>
    <path id="polyline189137" d="M628.762,592.202L622.418,599.424" style="fill:none;fill-rule:nonzero;stroke:black;stroke-width:0.4px;stroke-linecap:butt;stroke-linejoin:miter;stroke-miterlimit:4;"/>
    <path id="polyline189139" d="M628.762,593.94L623.943,599.424" style="fill:none;fill-rule:nonzero;stroke:black;stroke-width:0.4px;stroke-linecap:butt;stroke-linejoin:miter;stroke-miterlimit:4;"/>
    <path id="polyline189141" d="M628.762,595.676L625.47,599.424" style="fill:none;fill-rule:nonzero;stroke:black;stroke-width:0.4px;stroke-linecap:butt;stroke-linejoin:miter;stroke-miterlimit:4;"/>
    <path id="polyline189143" d="M628.762,597.412L626.995,599.424" style="fill:none;fill-rule:nonzero;stroke:black;stroke-width:0.4px;stroke-linecap:butt;stroke-linejoin:miter;stroke-miterlimit:4;"/>
    <path id="polyline189145" d="M628.762,599.15L628.52,599.424" style="fill:none;fill-rule:nonzero;stroke:black;stroke-width:0.4px;stroke-linecap:butt;stroke-linejoin:miter;stroke-miterlimit:4;"/>
    <path id="polyline189149" d="M623.182,599.424L623.182,593.84L625.971,592.931L625.971,599.424" style="fill:none;fill-rule:nonzero;stroke:black;stroke-width:0.4px;stroke-linecap:butt;stroke-linejoin:miter;stroke-miterlimit:4;"/>
    <path id="polyline189151" d="M624.707,593.344L623.182,595.08" style="fill:none;fill-rule:nonzero;stroke:black;stroke-width:0.4px;stroke-linecap:butt;stroke-linejoin:miter;stroke-miterlimit:4;"/>
    <path id="polyline189153" d="M625.971,593.64L623.182,596.816" style="fill:none;fill-rule:nonzero;stroke:black;stroke-width:0.4px;stroke-linecap:butt;stroke-linejoin:miter;stroke-miterlimit:4;"/>
    <path id="polyline189155" d="M625.971,595.378L623.182,598.552" style="fill:none;fill-rule:nonzero;stroke:black;stroke-width:0.4px;stroke-linecap:butt;stroke-linejoin:miter;stroke-miterlimit:4;"/>
    <path id="polyline189157" d="M625.971,597.114L623.943,599.424" style="fill:none;fill-rule:nonzero;stroke:black;stroke-width:0.4px;stroke-linecap:butt;stroke-linejoin:miter;stroke-miterlimit:4;"/>
    <path id="polyline189159" d="M625.971,598.852L625.47,599.424" style="fill:none;fill-rule:nonzero;stroke:black;stroke-width:0.4px;stroke-linecap:butt;stroke-linejoin:miter;stroke-miterlimit:4;"/>
    <path id="polyline189161" d="M604.67,599.424L604.67,592.567L607.206,593.568L607.206,599.424" style="fill:none;fill-rule:nonzero;stroke:black;stroke-width:0.4px;stroke-linecap:butt;stroke-linejoin:miter;stroke-miterlimit:4;"/>
    <path id="polyline189163" d="M609.743,599.424L609.743,594.569L612.279,595.569L612.279,599.424" style="fill:none;fill-rule:nonzero;stroke:black;stroke-width:0.4px;stroke-linecap:butt;stroke-linejoin:miter;stroke-miterlimit:4;"/>
    <path id="polyline190101" d="M602.187,568.612L602.135,568.672" style="fill:none;fill-rule:nonzero;stroke:black;stroke-width:0.4px;stroke-linecap:butt;stroke-linejoin:miter;stroke-miterlimit:4;"/>
    <path id="polyline1890311" serif:id="polyline189031" d="M614.814,591.293L614.814,573.698" style="fill:none;fill-rule:nonzero;stroke:black;stroke-width:0.4px;stroke-linecap:butt;stroke-linejoin:miter;stroke-miterlimit:4;"/>
    <path id="polyline1890331" serif:id="polyline189033" d="M628.762,569.149L628.762,586.743" style="fill:none;fill-rule:nonzero;stroke:black;stroke-width:0.4px;stroke-linecap:butt;stroke-linejoin:miter;stroke-miterlimit:4;"/>
    <path id="polyline1890351" serif:id="polyline189035" d="M616.515,573.144L614.814,575.08" style="fill:none;fill-rule:nonzero;stroke:black;stroke-width:0.4px;stroke-linecap:butt;stroke-linejoin:miter;stroke-miterlimit:4;"/>
    <path id="polyline1890371" serif:id="polyline189037" d="M618.653,572.447L614.814,576.816" style="fill:none;fill-rule:nonzero;stroke:black;stroke-width:0.4px;stroke-linecap:butt;stroke-linejoin:miter;stroke-miterlimit:4;"/>
    <path id="polyline1890391" serif:id="polyline189039" d="M620.791,571.748L614.814,578.554" style="fill:none;fill-rule:nonzero;stroke:black;stroke-width:0.4px;stroke-linecap:butt;stroke-linejoin:miter;stroke-miterlimit:4;"/>
    <path id="polyline1890411" serif:id="polyline189041" d="M622.93,571.051L614.814,580.29" style="fill:none;fill-rule:nonzero;stroke:black;stroke-width:0.4px;stroke-linecap:butt;stroke-linejoin:miter;stroke-miterlimit:4;"/>
    <path id="polyline1890431" serif:id="polyline189043" d="M625.069,570.353L614.814,582.026" style="fill:none;fill-rule:nonzero;stroke:black;stroke-width:0.4px;stroke-linecap:butt;stroke-linejoin:miter;stroke-miterlimit:4;"/>
    <path id="polyline1890451" serif:id="polyline189045" d="M627.207,569.656L614.814,583.764" style="fill:none;fill-rule:nonzero;stroke:black;stroke-width:0.4px;stroke-linecap:butt;stroke-linejoin:miter;stroke-miterlimit:4;"/>
    <path id="polyline1890471" serif:id="polyline189047" d="M628.762,569.624L614.814,585.5" style="fill:none;fill-rule:nonzero;stroke:black;stroke-width:0.4px;stroke-linecap:butt;stroke-linejoin:miter;stroke-miterlimit:4;"/>
    <path id="polyline1890491" serif:id="polyline189049" d="M628.762,571.362L614.814,587.238" style="fill:none;fill-rule:nonzero;stroke:black;stroke-width:0.4px;stroke-linecap:butt;stroke-linejoin:miter;stroke-miterlimit:4;"/>
    <path id="polyline1890511" serif:id="polyline189051" d="M628.762,573.098L614.814,588.974" style="fill:none;fill-rule:nonzero;stroke:black;stroke-width:0.4px;stroke-linecap:butt;stroke-linejoin:miter;stroke-miterlimit:4;"/>
    <path id="polyline1890531" serif:id="polyline189053" d="M628.762,574.834L614.814,590.71" style="fill:none;fill-rule:nonzero;stroke:black;stroke-width:0.4px;stroke-linecap:butt;stroke-linejoin:miter;stroke-miterlimit:4;"/>
    <path id="polyline1890551" serif:id="polyline189055" d="M628.762,576.572L616.237,590.828" style="fill:none;fill-rule:nonzero;stroke:black;stroke-width:0.4px;stroke-linecap:butt;stroke-linejoin:miter;stroke-miterlimit:4;"/>
    <path id="polyline1890571" serif:id="polyline189057" d="M628.762,578.308L618.375,590.131" style="fill:none;fill-rule:nonzero;stroke:black;stroke-width:0.4px;stroke-linecap:butt;stroke-linejoin:miter;stroke-miterlimit:4;"/>
    <path id="polyline1890591" serif:id="polyline189059" d="M628.762,580.046L620.513,589.433" style="fill:none;fill-rule:nonzero;stroke:black;stroke-width:0.4px;stroke-linecap:butt;stroke-linejoin:miter;stroke-miterlimit:4;"/>
    <path id="polyline1890611" serif:id="polyline189061" d="M628.762,581.782L622.651,588.736" style="fill:none;fill-rule:nonzero;stroke:black;stroke-width:0.4px;stroke-linecap:butt;stroke-linejoin:miter;stroke-miterlimit:4;"/>
    <path id="polyline1890631" serif:id="polyline189063" d="M628.762,583.518L624.791,588.039" style="fill:none;fill-rule:nonzero;stroke:black;stroke-width:0.4px;stroke-linecap:butt;stroke-linejoin:miter;stroke-miterlimit:4;"/>
    <path id="polyline1890651" serif:id="polyline189065" d="M628.762,585.256L626.929,587.34" style="fill:none;fill-rule:nonzero;stroke:black;stroke-width:0.4px;stroke-linecap:butt;stroke-linejoin:miter;stroke-miterlimit:4;"/>
    <path id="polyline1890671" serif:id="polyline189067" d="M602.135,586.289L602.135,568.695" style="fill:none;fill-rule:nonzero;stroke:black;stroke-width:0.4px;stroke-linecap:butt;stroke-linejoin:miter;stroke-miterlimit:4;"/>
    <path id="polyline1890691" serif:id="polyline189069" d="M617.603,585.104L617.603,578.066L620.392,577.157L620.392,584.195L617.603,585.104" style="fill:none;fill-rule:nonzero;stroke:black;stroke-width:0.4px;stroke-linecap:butt;stroke-linejoin:miter;stroke-miterlimit:4;"/>
    <path id="polyline1890711" serif:id="polyline189071" d="M618.569,577.752L617.603,578.852" style="fill:none;fill-rule:nonzero;stroke:black;stroke-width:0.4px;stroke-linecap:butt;stroke-linejoin:miter;stroke-miterlimit:4;"/>
    <path id="polyline1890731" serif:id="polyline189073" d="M620.392,577.414L617.603,580.588" style="fill:none;fill-rule:nonzero;stroke:black;stroke-width:0.4px;stroke-linecap:butt;stroke-linejoin:miter;stroke-miterlimit:4;"/>
    <path id="polyline1890751" serif:id="polyline189075" d="M620.392,579.15L617.603,582.326" style="fill:none;fill-rule:nonzero;stroke:black;stroke-width:0.4px;stroke-linecap:butt;stroke-linejoin:miter;stroke-miterlimit:4;"/>
    <path id="polyline1890771" serif:id="polyline189077" d="M620.392,580.886L617.603,584.062" style="fill:none;fill-rule:nonzero;stroke:black;stroke-width:0.4px;stroke-linecap:butt;stroke-linejoin:miter;stroke-miterlimit:4;"/>
    <path id="polyline1890791" serif:id="polyline189079" d="M620.392,582.624L618.459,584.825" style="fill:none;fill-rule:nonzero;stroke:black;stroke-width:0.4px;stroke-linecap:butt;stroke-linejoin:miter;stroke-miterlimit:4;"/>
    <path id="polyline1890811" serif:id="polyline189081" d="M623.182,583.284L623.182,576.248L625.971,575.337L625.971,582.375L623.182,583.284" style="fill:none;fill-rule:nonzero;stroke:black;stroke-width:0.4px;stroke-linecap:butt;stroke-linejoin:miter;stroke-miterlimit:4;"/>
    <path id="polyline1890831" serif:id="polyline189083" d="M624.985,575.659L623.182,577.712" style="fill:none;fill-rule:nonzero;stroke:black;stroke-width:0.4px;stroke-linecap:butt;stroke-linejoin:miter;stroke-miterlimit:4;"/>
    <path id="polyline1890851" serif:id="polyline189085" d="M625.971,576.274L623.182,579.448" style="fill:none;fill-rule:nonzero;stroke:black;stroke-width:0.4px;stroke-linecap:butt;stroke-linejoin:miter;stroke-miterlimit:4;"/>
    <path id="polyline1890871" serif:id="polyline189087" d="M625.971,578.01L623.182,581.186" style="fill:none;fill-rule:nonzero;stroke:black;stroke-width:0.4px;stroke-linecap:butt;stroke-linejoin:miter;stroke-miterlimit:4;"/>
    <path id="polyline1890891" serif:id="polyline189089" d="M625.971,579.746L623.182,582.922" style="fill:none;fill-rule:nonzero;stroke:black;stroke-width:0.4px;stroke-linecap:butt;stroke-linejoin:miter;stroke-miterlimit:4;"/>
    <path id="polyline1890911" serif:id="polyline189091" d="M625.971,581.484L624.874,582.732" style="fill:none;fill-rule:nonzero;stroke:black;stroke-width:0.4px;stroke-linecap:butt;stroke-linejoin:miter;stroke-miterlimit:4;"/>
    <path id="polyline1890931" serif:id="polyline189093" d="M604.67,582.011L604.67,574.973L607.206,575.974L607.206,583.012L604.67,582.011" style="fill:none;fill-rule:nonzero;stroke:black;stroke-width:0.4px;stroke-linecap:butt;stroke-linejoin:miter;stroke-miterlimit:4;"/>
    <path id="polyline1890971" serif:id="polyline189097" d="M621.788,562.627L628.762,569.149" style="fill:none;fill-rule:nonzero;stroke:black;stroke-width:0.4px;stroke-linecap:butt;stroke-linejoin:miter;stroke-miterlimit:4;"/>
    <path id="polyline1890991" serif:id="polyline189099" d="M622.289,563.096L619.471,566.306" style="fill:none;fill-rule:nonzero;stroke:black;stroke-width:0.4px;stroke-linecap:butt;stroke-linejoin:miter;stroke-miterlimit:4;"/>
    <path id="polyline1891011" serif:id="polyline189101" d="M623.127,563.88L615.606,572.442" style="fill:none;fill-rule:nonzero;stroke:black;stroke-width:0.4px;stroke-linecap:butt;stroke-linejoin:miter;stroke-miterlimit:4;"/>
    <path id="polyline1891031" serif:id="polyline189103" d="M623.964,564.663L616.515,573.144" style="fill:none;fill-rule:nonzero;stroke:black;stroke-width:0.4px;stroke-linecap:butt;stroke-linejoin:miter;stroke-miterlimit:4;"/>
    <path id="polyline1891051" serif:id="polyline189105" d="M624.802,565.447L618.653,572.447" style="fill:none;fill-rule:nonzero;stroke:black;stroke-width:0.4px;stroke-linecap:butt;stroke-linejoin:miter;stroke-miterlimit:4;"/>
    <path id="polyline1891071" serif:id="polyline189107" d="M625.639,566.229L620.791,571.748" style="fill:none;fill-rule:nonzero;stroke:black;stroke-width:0.4px;stroke-linecap:butt;stroke-linejoin:miter;stroke-miterlimit:4;"/>
    <path id="polyline1891091" serif:id="polyline189109" d="M626.477,567.013L622.93,571.051" style="fill:none;fill-rule:nonzero;stroke:black;stroke-width:0.4px;stroke-linecap:butt;stroke-linejoin:miter;stroke-miterlimit:4;"/>
    <path id="polyline1891111" serif:id="polyline189111" d="M627.314,567.796L625.069,570.353" style="fill:none;fill-rule:nonzero;stroke:black;stroke-width:0.4px;stroke-linecap:butt;stroke-linejoin:miter;stroke-miterlimit:4;"/>
    <path id="polyline1891131" serif:id="polyline189113" d="M628.152,568.58L627.207,569.656" style="fill:none;fill-rule:nonzero;stroke:black;stroke-width:0.4px;stroke-linecap:butt;stroke-linejoin:miter;stroke-miterlimit:4;"/>
    <path id="polyline1891151" serif:id="polyline189115" d="M614.814,599.424L614.814,591.293" style="fill:none;fill-rule:nonzero;stroke:black;stroke-width:0.4px;stroke-linecap:butt;stroke-linejoin:miter;stroke-miterlimit:4;"/>
    <path id="polyline1891171" serif:id="polyline189117" d="M628.762,586.743L628.762,599.424" style="fill:none;fill-rule:nonzero;stroke:black;stroke-width:0.4px;stroke-linecap:butt;stroke-linejoin:miter;stroke-miterlimit:4;"/>
    <path id="polyline1891191" serif:id="polyline189119" d="M616.237,590.828L614.814,592.448" style="fill:none;fill-rule:nonzero;stroke:black;stroke-width:0.4px;stroke-linecap:butt;stroke-linejoin:miter;stroke-miterlimit:4;"/>
    <path id="polyline1891211" serif:id="polyline189121" d="M618.375,590.131L614.814,594.184" style="fill:none;fill-rule:nonzero;stroke:black;stroke-width:0.4px;stroke-linecap:butt;stroke-linejoin:miter;stroke-miterlimit:4;"/>
    <path id="polyline1891231" serif:id="polyline189123" d="M620.513,589.433L614.814,595.922" style="fill:none;fill-rule:nonzero;stroke:black;stroke-width:0.4px;stroke-linecap:butt;stroke-linejoin:miter;stroke-miterlimit:4;"/>
    <path id="polyline1891251" serif:id="polyline189125" d="M622.651,588.736L614.814,597.658" style="fill:none;fill-rule:nonzero;stroke:black;stroke-width:0.4px;stroke-linecap:butt;stroke-linejoin:miter;stroke-miterlimit:4;"/>
    <path id="polyline1891271" serif:id="polyline189127" d="M624.791,588.039L614.814,599.394" style="fill:none;fill-rule:nonzero;stroke:black;stroke-width:0.4px;stroke-linecap:butt;stroke-linejoin:miter;stroke-miterlimit:4;"/>
    <path id="polyline1891291" serif:id="polyline189129" d="M626.929,587.34L616.315,599.424" style="fill:none;fill-rule:nonzero;stroke:black;stroke-width:0.4px;stroke-linecap:butt;stroke-linejoin:miter;stroke-miterlimit:4;"/>
    <path id="polyline1891311" serif:id="polyline189131" d="M628.762,586.992L617.84,599.424" style="fill:none;fill-rule:nonzero;stroke:black;stroke-width:0.4px;stroke-linecap:butt;stroke-linejoin:miter;stroke-miterlimit:4;"/>
    <path id="polyline1891331" serif:id="polyline189133" d="M628.762,588.73L619.365,599.424" style="fill:none;fill-rule:nonzero;stroke:black;stroke-width:0.4px;stroke-linecap:butt;stroke-linejoin:miter;stroke-miterlimit:4;"/>
    <path id="polyline1891351" serif:id="polyline189135" d="M628.762,590.466L620.892,599.424" style="fill:none;fill-rule:nonzero;stroke:black;stroke-width:0.4px;stroke-linecap:butt;stroke-linejoin:miter;stroke-miterlimit:4;"/>
    <path id="polyline1891371" serif:id="polyline189137" d="M628.762,592.202L622.418,599.424" style="fill:none;fill-rule:nonzero;stroke:black;stroke-width:0.4px;stroke-linecap:butt;stroke-linejoin:miter;stroke-miterlimit:4;"/>
    <path id="polyline1891391" serif:id="polyline189139" d="M628.762,593.94L623.943,599.424" style="fill:none;fill-rule:nonzero;stroke:black;stroke-width:0.4px;stroke-linecap:butt;stroke-linejoin:miter;stroke-miterlimit:4;"/>
    <path id="polyline1891411" serif:id="polyline189141" d="M628.762,595.676L625.47,599.424" style="fill:none;fill-rule:nonzero;stroke:black;stroke-width:0.4px;stroke-linecap:butt;stroke-linejoin:miter;stroke-miterlimit:4;"/>
    <path id="polyline1891431" serif:id="polyline189143" d="M628.762,597.412L626.995,599.424" style="fill:none;fill-rule:nonzero;stroke:black;stroke-width:0.4px;stroke-linecap:butt;stroke-linejoin:miter;stroke-miterlimit:4;"/>
    <path id="polyline1891451" serif:id="polyline189145" d="M628.762,599.15L628.52,599.424" style="fill:none;fill-rule:nonzero;stroke:black;stroke-width:0.4px;stroke-linecap:butt;stroke-linejoin:miter;stroke-miterlimit:4;"/>
    <path id="polyline189147" d="M602.135,599.424L602.135,586.289" style="fill:none;fill-rule:nonzero;stroke:black;stroke-width:0.4px;stroke-linecap:butt;stroke-linejoin:miter;stroke-miterlimit:4;"/>
    <path id="polyline1891491" serif:id="polyline189149" d="M623.182,599.424L623.182,593.84L625.971,592.931L625.971,599.424" style="fill:none;fill-rule:nonzero;stroke:black;stroke-width:0.4px;stroke-linecap:butt;stroke-linejoin:miter;stroke-miterlimit:4;"/>
    <path id="polyline1891511" serif:id="polyline189151" d="M624.707,593.344L623.182,595.08" style="fill:none;fill-rule:nonzero;stroke:black;stroke-width:0.4px;stroke-linecap:butt;stroke-linejoin:miter;stroke-miterlimit:4;"/>
    <path id="polyline1891531" serif:id="polyline189153" d="M625.971,593.64L623.182,596.816" style="fill:none;fill-rule:nonzero;stroke:black;stroke-width:0.4px;stroke-linecap:butt;stroke-linejoin:miter;stroke-miterlimit:4;"/>
    <path id="polyline1891551" serif:id="polyline189155" d="M625.971,595.378L623.182,598.552" style="fill:none;fill-rule:nonzero;stroke:black;stroke-width:0.4px;stroke-linecap:butt;stroke-linejoin:miter;stroke-miterlimit:4;"/>
    <path id="polyline1891571" serif:id="polyline189157" d="M625.971,597.114L623.943,599.424" style="fill:none;fill-rule:nonzero;stroke:black;stroke-width:0.4px;stroke-linecap:butt;stroke-linejoin:miter;stroke-miterlimit:4;"/>
    <path id="polyline1891591" serif:id="polyline189159" d="M625.971,598.852L625.47,599.424" style="fill:none;fill-rule:nonzero;stroke:black;stroke-width:0.4px;stroke-linecap:butt;stroke-linejoin:miter;stroke-miterlimit:4;"/>
    <path id="polyline1891611" serif:id="polyline189161" d="M604.67,599.424L604.67,592.567L607.206,593.568L607.206,599.424" style="fill:none;fill-rule:nonzero;stroke:black;stroke-width:0.4px;stroke-linecap:butt;stroke-linejoin:miter;stroke-miterlimit:4;"/>
    <path id="polyline1891631" serif:id="polyline189163" d="M609.743,599.424L609.743,594.569L612.279,595.569L612.279,599.424" style="fill:none;fill-rule:nonzero;stroke:black;stroke-width:0.4px;stroke-linecap:butt;stroke-linejoin:miter;stroke-miterlimit:4;"/>
    <path id="polyline1901011" serif:id="polyline190101" d="M602.187,568.612L602.135,568.672" style="fill:none;fill-rule:nonzero;stroke:black;stroke-width:0.4px;stroke-linecap:butt;stroke-linejoin:miter;stroke-miterlimit:4;"/>
    <path d="M657.246,573.003L657.246,584.963L669.206,584.963L669.206,573.003L681.166,573.003L681.166,584.963L693.126,584.963L693.126,573.003L705.086,573.003L705.086,584.963L717.046,584.963L717.046,573.003" style="fill:none;stroke:black;stroke-width:0.13px;"/>
    <path d="M562.023,571.149L569.699,586.501L554.347,586.501L562.023,571.149Z" style="fill:none;stroke:black;stroke-width:0.13px;"/>
    <path d="M562.023,566.459L573.389,589.19L550.658,589.19L562.023,566.459Z" style="fill:none;stroke:black;stroke-width:0.13px;"/>
    <path d="M562.023,560.396L578.452,593.253L545.594,593.253L562.023,560.396Z" style="fill:none;stroke:black;stroke-width:0.13px;"/>
</svg>
